<?xml version="1.0" standalone="no"?>
<!DOCTYPE svg PUBLIC "-//W3C//DTD SVG 20010904//EN"
 "http://www.w3.org/TR/2001/REC-SVG-20010904/DTD/svg10.dtd">
<svg version="1.0" xmlns="http://www.w3.org/2000/svg"
 width="263.000000pt" height="78.000000pt" viewBox="0 0 263.000000 78.000000"
 preserveAspectRatio="xMidYMid meet">

<g transform="translate(0.000000,78.000000) scale(0.100000,-0.100000)"
fill="#000000" stroke="none">
<path d="M1031 386 c-15 -18 -10 -78 7 -84 10 -3 10 2 1 22 -10 20 -9 30 5 51
17 26 7 35 -13 11z"/>
<path d="M1085 390 c3 -5 8 -10 11 -10 2 0 4 5 4 10 0 6 -5 10 -11 10 -5 0 -7
-4 -4 -10z"/>
<path d="M1129 358 c-6 -24 -13 -46 -16 -50 -2 -5 0 -8 6 -8 5 0 12 18 16 40
8 47 25 44 25 -6 0 -19 4 -34 8 -34 11 0 35 51 27 58 -3 3 -5 0 -5 -7 0 -7 -4
-9 -10 -6 -5 3 -10 17 -10 31 0 41 -28 28 -41 -18z"/>
<path d="M1207 393 c-12 -11 -8 -25 5 -17 8 5 9 -5 5 -34 -3 -23 -1 -42 3 -42
4 0 10 23 12 50 3 47 -6 62 -25 43z"/>
<path d="M1278 369 c-23 -13 -24 -65 -2 -73 20 -8 54 20 54 44 0 15 -18 40
-29 40 -4 0 -14 -5 -23 -11z m30 -31 c-4 -41 -28 -50 -28 -10 0 16 3 32 7 35
15 16 24 5 21 -25z"/>
<path d="M1351 336 l1 -41 14 33 c8 17 19 32 24 32 22 0 8 15 -15 16 -23 2
-25 -1 -24 -40z"/>
<path d="M1445 340 c0 -26 4 -40 13 -40 9 0 12 12 10 37 -4 50 -23 53 -23 3z"/>
<path d="M1506 364 c-19 -18 -18 -55 2 -62 7 -2 10 2 6 11 -3 10 2 18 16 22
12 4 20 13 18 23 -4 22 -23 25 -42 6z m34 -3 c0 -12 -20 -25 -27 -18 -7 7 6
27 18 27 5 0 9 -4 9 -9z"/>
<path d="M1583 373 c-18 -6 -16 -28 2 -43 12 -10 13 -16 4 -27 -10 -11 -9 -12
5 -7 17 7 23 44 6 44 -14 0 -12 27 3 33 6 3 8 5 2 5 -5 0 -16 -2 -22 -5z"/>
<path d="M1410 349 c-7 -11 -9 -27 -6 -35 10 -25 21 -15 22 21 1 41 -1 42 -16
14z"/>
<path d="M1075 325 c0 -30 19 -27 23 3 2 13 -2 22 -10 22 -7 0 -13 -11 -13
-25z"/>
</g>
</svg>
