<?xml version="1.0" encoding="UTF-8"?>
<!DOCTYPE svg PUBLIC "-//W3C//DTD SVG 1.1//EN" "http://www.w3.org/Graphics/SVG/1.1/DTD/svg11.dtd">
<svg xmlns="http://www.w3.org/2000/svg" version="1.1" width="64px" height="21px" style="shape-rendering:geometricPrecision; text-rendering:geometricPrecision; image-rendering:optimizeQuality; fill-rule:evenodd; clip-rule:evenodd" xmlns:xlink="http://www.w3.org/1999/xlink">
<g><path style="opacity:1" fill="#f8f8fb" d="M -0.5,-0.5 C 20.8333,-0.5 42.1667,-0.5 63.5,-0.5C 63.5,6.5 63.5,13.5 63.5,20.5C 42.1667,20.5 20.8333,20.5 -0.5,20.5C -0.5,13.5 -0.5,6.5 -0.5,-0.5 Z"/></g>
<g><path style="opacity:1" fill="#8488ba" d="M 6.5,6.5 C 7.91866,5.54885 9.58533,5.21552 11.5,5.5C 11.719,6.67504 11.3857,7.67504 10.5,8.5C 9.58317,7.87277 8.58317,7.53944 7.5,7.5C 7.5,6.83333 7.16667,6.5 6.5,6.5 Z"/></g>
<g><path style="opacity:1" fill="#0c207b" d="M 22.5,7.5 C 22.5,7.16667 22.5,6.83333 22.5,6.5C 23.7773,7.69363 24.4439,9.3603 24.5,11.5C 24.3333,13.1667 24.1667,14.8333 24,16.5C 23.8195,13.3054 23.3195,10.3054 22.5,7.5 Z"/></g>
<g><path style="opacity:1" fill="#39418f" d="M 31.5,16.5 C 28.683,18.0497 27.3497,17.0497 27.5,13.5C 27.8118,9.00923 29.9784,7.6759 34,9.5C 35.0807,12.6939 34.2474,15.0272 31.5,16.5 Z"/></g>
<g><path style="opacity:1" fill="#e9eaf3" d="M 31.5,16.5 C 29.0217,14.5173 28.8551,12.184 31,9.5C 32.8068,11.706 32.9735,14.0394 31.5,16.5 Z"/></g>
<g><path style="opacity:1" fill="#666ca9" d="M 18.5,6.5 C 17.325,6.28099 16.325,6.61432 15.5,7.5C 16.6119,8.26515 17.2786,9.26515 17.5,10.5C 16.8826,10.3893 16.3826,10.056 16,9.5C 14.8814,12.0571 14.7147,14.5571 15.5,17C 13.9343,17.765 12.6009,17.5983 11.5,16.5C 13.2394,14.6251 14.2394,12.2918 14.5,9.5C 14.3201,8.44606 13.9867,7.44606 13.5,6.5C 15.2985,5.21214 16.9652,5.21214 18.5,6.5 Z"/></g>
<g><path style="opacity:1" fill="#3e4491" d="M 36.5,8.5 C 38.2247,9.27803 39.8914,9.61137 41.5,9.5C 39.205,11.2002 37.8717,13.5335 37.5,16.5C 36.52,13.9135 36.1866,11.2469 36.5,8.5 Z"/></g>
<g><path style="opacity:1" fill="#37408e" d="M 44.5,8.5 C 45.8333,8.5 47.1667,8.5 48.5,8.5C 48.8174,11.5719 48.4841,14.5719 47.5,17.5C 46.6919,17.1924 46.0253,16.6924 45.5,16C 46.5914,13.9361 46.7581,11.7695 46,9.5C 43.5175,11.2603 43.0175,13.427 44.5,16C 43.5509,16.6172 42.7175,16.4506 42,15.5C 41.3333,14.1667 41.3333,12.8333 42,11.5C 43.045,10.6266 43.8783,9.62656 44.5,8.5 Z"/></g>
<g><path style="opacity:1" fill="#3f4693" d="M 52.5,8.5 C 53.8333,8.5 55.1667,8.5 56.5,8.5C 57.1571,11.8408 55.8237,13.8408 52.5,14.5C 57.3504,15.3681 57.517,16.3681 53,17.5C 51.1147,17.1379 50.2814,15.9713 50.5,14C 50.7579,11.9907 51.4245,10.1573 52.5,8.5 Z"/></g>
<g><path style="opacity:1" fill="#e3e5ef" d="M 53.5,9.5 C 54.7759,10.3864 54.7759,11.3864 53.5,12.5C 52.4376,11.5754 52.4376,10.5754 53.5,9.5 Z"/></g>
<g><path style="opacity:1" fill="#424894" d="M 59.5,8.5 C 62.7973,8.3287 63.1306,8.99536 60.5,10.5C 63.4798,13.5404 63.1465,15.8738 59.5,17.5C 58.8333,17.1667 58.1667,16.8333 57.5,16.5C 58.5,15.8333 59.5,15.1667 60.5,14.5C 58.4537,12.719 58.1204,10.719 59.5,8.5 Z"/></g>
<g><path style="opacity:1" fill="#273487" d="M 18.5,6.5 C 18.5,7.16667 18.5,7.83333 18.5,8.5C 18.1568,10.4832 18.8235,11.8166 20.5,12.5C 20.3718,14.0898 19.7051,15.4231 18.5,16.5C 17.5344,14.604 17.2011,12.604 17.5,10.5C 17.2786,9.26515 16.6119,8.26515 15.5,7.5C 16.325,6.61432 17.325,6.28099 18.5,6.5 Z"/></g>
<g><path style="opacity:1" fill="#3b4290" d="M 6.5,6.5 C 7.16667,6.5 7.5,6.83333 7.5,7.5C 6.88258,7.61071 6.38258,7.94404 6,8.5C 5.50335,10.8098 5.33669,13.1432 5.5,15.5C 6.83333,15.5 8.16667,15.5 9.5,15.5C 9.66997,14.1779 9.33663,13.0113 8.5,12C 9.44802,11.5172 10.448,11.3505 11.5,11.5C 11.5,13.1667 11.5,14.8333 11.5,16.5C 4.53879,18.3692 2.03879,15.7026 4,8.5C 4.7083,7.61947 5.54163,6.9528 6.5,6.5 Z"/></g>
<g><path style="opacity:1" fill="#848dbc" d="M 22.5,6.5 C 23.7082,5.21798 25.0416,5.21798 26.5,6.5C 25.5741,10.0938 25.2408,13.7604 25.5,17.5C 24.1266,17.6567 22.7932,17.49 21.5,17C 22.5914,14.9361 22.7581,12.7695 22,10.5C 21.7216,11.4158 21.2216,12.0825 20.5,12.5C 18.8235,11.8166 18.1568,10.4832 18.5,8.5C 19.2679,9.26253 19.7679,10.2625 20,11.5C 20.6082,9.93356 21.4415,8.60023 22.5,7.5C 23.3195,10.3054 23.8195,13.3054 24,16.5C 24.1667,14.8333 24.3333,13.1667 24.5,11.5C 24.4439,9.3603 23.7773,7.69363 22.5,6.5 Z"/></g>
</svg>
